{
    "asset" : {
        "generator" : "Khronos glTF Blender I/O v0.9.11",
        "version" : "2.0"
    },
    "scene" : 0,
    "scenes" : [
        {
            "name" : "Scene",
            "nodes" : [
                13
            ]
        }
    ],
    "nodes" : [
        {
            "name" : "RightEye",
            "rotation" : [
                0.0951310247182846,
                0.7006782293319702,
                0.09513100236654282,
                0.7006784081459045
            ],
            "scale" : [
                1.0000001192092896,
                1.000000238418579,
                1.0000001192092896
            ],
            "translation" : [
                0.7279463410377502,
                0.2961225211620331,
                -0.27689963579177856
            ]
        },
        {
            "name" : "LeftEye",
            "rotation" : [
                0.09513098001480103,
                0.7006782293319702,
                0.09513095021247864,
                0.7006784081459045
            ],
            "scale" : [
                1.0000001192092896,
                1,
                1
            ],
            "translation" : [
                -0.7279463410377502,
                0.29612240195274353,
                -0.2768999934196472
            ]
        },
        {
            "children" : [
                0,
                1
            ],
            "name" : "Head",
            "rotation" : [
                0.10083377361297607,
                -0.6989557147026062,
                0.012501547113060951,
                0.7079104781150818
            ],
            "scale" : [
                1,
                1,
                1.0000001192092896
            ],
            "translation" : [
                -0.14818039536476135,
                0.3886701166629791,
                0.051663707941770554
            ]
        },
        {
            "children" : [
                2
            ],
            "name" : "Neck",
            "rotation" : [
                -0.0627443715929985,
                0.0021288329735398293,
                -0.21324820816516876,
                0.9749789834022522
            ],
            "scale" : [
                0.9999999403953552,
                0.9999999403953552,
                0.9999999403953552
            ],
            "translation" : [
                0,
                0.4375644624233246,
                0
            ]
        },
        {
            "name" : "Hand.L",
            "rotation" : [
                0.13669858872890472,
                3.054886205111629e-11,
                1.4572953954683499e-10,
                0.9906126856803894
            ],
            "translation" : [
                3.129611847452196e-10,
                0.2189493179321289,
                -4.842877388000488e-08
            ]
        },
        {
            "children" : [
                4
            ],
            "name" : "LowerArm.L",
            "rotation" : [
                -0.2654148042201996,
                -4.917958401629008e-11,
                -1.7864765222697088e-10,
                0.9641343951225281
            ],
            "scale" : [
                1,
                1.0000001192092896,
                1.0000001192092896
            ],
            "translation" : [
                0,
                0.27360591292381287,
                -2.9802322387695312e-08
            ]
        },
        {
            "children" : [
                5
            ],
            "name" : "Shoulder.L",
            "rotation" : [
                -0.19038403034210205,
                0,
                0,
                0.9817097187042236
            ],
            "scale" : [
                1,
                1,
                0.9999999403953552
            ],
            "translation" : [
                -0.013315856456756592,
                0.24881431460380554,
                -1.0265377759933472
            ]
        },
        {
            "name" : "Hand.R",
            "rotation" : [
                -0.13669860363006592,
                7.157029102700108e-08,
                1.6552423431903662e-08,
                0.9906126856803894
            ],
            "translation" : [
                -1.6979129213723354e-10,
                0.21894943714141846,
                5.564788452261382e-08
            ]
        },
        {
            "children" : [
                7
            ],
            "name" : "LowerArm.R",
            "rotation" : [
                0.2654147744178772,
                -4.719218793525215e-08,
                -3.99651689519942e-08,
                0.9641343355178833
            ],
            "scale" : [
                1,
                1.0000001192092896,
                1.0000001192092896
            ],
            "translation" : [
                -7.040021898774285e-10,
                0.27360594272613525,
                -2.7231793708892837e-08
            ]
        },
        {
            "children" : [
                8
            ],
            "name" : "Shoulder.R",
            "rotation" : [
                0.19038403034210205,
                -9.767220632284079e-08,
                -3.338819443143848e-09,
                0.9817097187042236
            ],
            "scale" : [
                1,
                1,
                0.9999999403953552
            ],
            "translation" : [
                -0.013315836898982525,
                0.24881431460380554,
                1.0368741750717163
            ]
        },
        {
            "children" : [
                3,
                6,
                9
            ],
            "name" : "Body",
            "rotation" : [
                0,
                -1.1920928955078125e-07,
                0,
                1
            ],
            "translation" : [
                0,
                0.40788665413856506,
                0
            ]
        },
        {
            "children" : [
                10
            ],
            "name" : "Root",
            "rotation" : [
                0,
                1.1920928955078125e-07,
                0,
                1
            ]
        },
        {
            "mesh" : 0,
            "name" : "Slime",
            "skin" : 0
        },
        {
            "children" : [
                12,
                11
            ],
            "name" : "Armature"
        }
    ],
    "animations" : [
        {
            "channels" : [
                {
                    "sampler" : 0,
                    "target" : {
                        "node" : 10,
                        "path" : "translation"
                    }
                },
                {
                    "sampler" : 1,
                    "target" : {
                        "node" : 10,
                        "path" : "rotation"
                    }
                },
                {
                    "sampler" : 2,
                    "target" : {
                        "node" : 10,
                        "path" : "scale"
                    }
                },
                {
                    "sampler" : 3,
                    "target" : {
                        "node" : 3,
                        "path" : "translation"
                    }
                },
                {
                    "sampler" : 4,
                    "target" : {
                        "node" : 3,
                        "path" : "rotation"
                    }
                },
                {
                    "sampler" : 5,
                    "target" : {
                        "node" : 2,
                        "path" : "translation"
                    }
                },
                {
                    "sampler" : 6,
                    "target" : {
                        "node" : 2,
                        "path" : "rotation"
                    }
                },
                {
                    "sampler" : 7,
                    "target" : {
                        "node" : 1,
                        "path" : "translation"
                    }
                },
                {
                    "sampler" : 8,
                    "target" : {
                        "node" : 1,
                        "path" : "rotation"
                    }
                },
                {
                    "sampler" : 9,
                    "target" : {
                        "node" : 0,
                        "path" : "translation"
                    }
                },
                {
                    "sampler" : 10,
                    "target" : {
                        "node" : 0,
                        "path" : "rotation"
                    }
                },
                {
                    "sampler" : 11,
                    "target" : {
                        "node" : 8,
                        "path" : "rotation"
                    }
                },
                {
                    "sampler" : 12,
                    "target" : {
                        "node" : 7,
                        "path" : "rotation"
                    }
                },
                {
                    "sampler" : 13,
                    "target" : {
                        "node" : 9,
                        "path" : "rotation"
                    }
                },
                {
                    "sampler" : 14,
                    "target" : {
                        "node" : 9,
                        "path" : "translation"
                    }
                },
                {
                    "sampler" : 15,
                    "target" : {
                        "node" : 6,
                        "path" : "translation"
                    }
                },
                {
                    "sampler" : 16,
                    "target" : {
                        "node" : 6,
                        "path" : "rotation"
                    }
                },
                {
                    "sampler" : 17,
                    "target" : {
                        "node" : 5,
                        "path" : "rotation"
                    }
                },
                {
                    "sampler" : 18,
                    "target" : {
                        "node" : 4,
                        "path" : "rotation"
                    }
                }
            ],
            "name" : "Slime_Idle",
            "samplers" : [
                {
                    "input" : 11,
                    "interpolation" : "CUBICSPLINE",
                    "output" : 12
                },
                {
                    "input" : 11,
                    "interpolation" : "CUBICSPLINE",
                    "output" : 13
                },
                {
                    "input" : 14,
                    "interpolation" : "STEP",
                    "output" : 15
                },
                {
                    "input" : 16,
                    "interpolation" : "CUBICSPLINE",
                    "output" : 17
                },
                {
                    "input" : 16,
                    "interpolation" : "CUBICSPLINE",
                    "output" : 18
                },
                {
                    "input" : 16,
                    "interpolation" : "CUBICSPLINE",
                    "output" : 19
                },
                {
                    "input" : 16,
                    "interpolation" : "CUBICSPLINE",
                    "output" : 20
                },
                {
                    "input" : 16,
                    "interpolation" : "CUBICSPLINE",
                    "output" : 21
                },
                {
                    "input" : 16,
                    "interpolation" : "CUBICSPLINE",
                    "output" : 22
                },
                {
                    "input" : 16,
                    "interpolation" : "CUBICSPLINE",
                    "output" : 23
                },
                {
                    "input" : 16,
                    "interpolation" : "CUBICSPLINE",
                    "output" : 24
                },
                {
                    "input" : 25,
                    "interpolation" : "CUBICSPLINE",
                    "output" : 26
                },
                {
                    "input" : 25,
                    "interpolation" : "CUBICSPLINE",
                    "output" : 27
                },
                {
                    "input" : 16,
                    "interpolation" : "CUBICSPLINE",
                    "output" : 28
                },
                {
                    "input" : 16,
                    "interpolation" : "CUBICSPLINE",
                    "output" : 29
                },
                {
                    "input" : 16,
                    "interpolation" : "CUBICSPLINE",
                    "output" : 30
                },
                {
                    "input" : 16,
                    "interpolation" : "CUBICSPLINE",
                    "output" : 31
                },
                {
                    "input" : 25,
                    "interpolation" : "CUBICSPLINE",
                    "output" : 32
                },
                {
                    "input" : 25,
                    "interpolation" : "CUBICSPLINE",
                    "output" : 33
                }
            ]
        }
    ],
    "materials" : [
        {
            "doubleSided" : true,
            "name" : "Body",
            "pbrMetallicRoughness" : {}
        },
        {
            "doubleSided" : true,
            "name" : "Eyes",
            "pbrMetallicRoughness" : {}
        }
    ],
    "meshes" : [
        {
            "name" : "Cube",
            "primitives" : [
                {
                    "attributes" : {
                        "POSITION" : 0,
                        "NORMAL" : 1,
                        "JOINTS_0" : 2,
                        "WEIGHTS_0" : 3
                    },
                    "indices" : 4,
                    "material" : 0
                },
                {
                    "attributes" : {
                        "POSITION" : 5,
                        "NORMAL" : 6,
                        "JOINTS_0" : 7,
                        "WEIGHTS_0" : 8
                    },
                    "indices" : 9,
                    "material" : 1
                }
            ]
        }
    ],
    "skins" : [
        {
            "inverseBindMatrices" : 10,
            "joints" : [
                11,
                10,
                3,
                2,
                0,
                1,
                6,
                5,
                4,
                9,
                8,
                7
            ],
            "name" : "Armature"
        }
    ],
    "accessors" : [
        {
            "bufferView" : 0,
            "componentType" : 5126,
            "count" : 992,
            "max" : [
                1.2683874368667603,
                1.9337544441223145,
                1.5308773517608643
            ],
            "min" : [
                -1.2683874368667603,
                -0.014278572052717209,
                -1.5308773517608643
            ],
            "type" : "VEC3"
        },
        {
            "bufferView" : 1,
            "componentType" : 5126,
            "count" : 992,
            "type" : "VEC3"
        },
        {
            "bufferView" : 2,
            "componentType" : 5123,
            "count" : 992,
            "type" : "VEC4"
        },
        {
            "bufferView" : 3,
            "componentType" : 5126,
            "count" : 992,
            "type" : "VEC4"
        },
        {
            "bufferView" : 4,
            "componentType" : 5123,
            "count" : 1440,
            "type" : "SCALAR"
        },
        {
            "bufferView" : 5,
            "componentType" : 5126,
            "count" : 1920,
            "max" : [
                0.6767857670783997,
                1.7817133665084839,
                1.0346314907073975
            ],
            "min" : [
                0.07169348001480103,
                1.1687203645706177,
                -1.0346317291259766
            ],
            "type" : "VEC3"
        },
        {
            "bufferView" : 6,
            "componentType" : 5126,
            "count" : 1920,
            "type" : "VEC3"
        },
        {
            "bufferView" : 7,
            "componentType" : 5123,
            "count" : 1920,
            "type" : "VEC4"
        },
        {
            "bufferView" : 8,
            "componentType" : 5126,
            "count" : 1920,
            "type" : "VEC4"
        },
        {
            "bufferView" : 9,
            "componentType" : 5123,
            "count" : 2880,
            "type" : "SCALAR"
        },
        {
            "bufferView" : 10,
            "componentType" : 5126,
            "count" : 12,
            "type" : "MAT4"
        },
        {
            "bufferView" : 11,
            "componentType" : 5126,
            "count" : 3,
            "max" : [
                2.5
            ],
            "min" : [
                0
            ],
            "type" : "SCALAR"
        },
        {
            "bufferView" : 12,
            "componentType" : 5126,
            "count" : 9,
            "type" : "VEC3"
        },
        {
            "bufferView" : 13,
            "componentType" : 5126,
            "count" : 9,
            "type" : "VEC4"
        },
        {
            "bufferView" : 14,
            "componentType" : 5126,
            "count" : 1,
            "max" : [
                0
            ],
            "min" : [
                0
            ],
            "type" : "SCALAR"
        },
        {
            "bufferView" : 15,
            "componentType" : 5126,
            "count" : 1,
            "type" : "VEC3"
        },
        {
            "bufferView" : 16,
            "componentType" : 5126,
            "count" : 2,
            "max" : [
                2.5
            ],
            "min" : [
                0
            ],
            "type" : "SCALAR"
        },
        {
            "bufferView" : 17,
            "componentType" : 5126,
            "count" : 6,
            "type" : "VEC3"
        },
        {
            "bufferView" : 18,
            "componentType" : 5126,
            "count" : 6,
            "type" : "VEC4"
        },
        {
            "bufferView" : 19,
            "componentType" : 5126,
            "count" : 6,
            "type" : "VEC3"
        },
        {
            "bufferView" : 20,
            "componentType" : 5126,
            "count" : 6,
            "type" : "VEC4"
        },
        {
            "bufferView" : 21,
            "componentType" : 5126,
            "count" : 6,
            "type" : "VEC3"
        },
        {
            "bufferView" : 22,
            "componentType" : 5126,
            "count" : 6,
            "type" : "VEC4"
        },
        {
            "bufferView" : 23,
            "componentType" : 5126,
            "count" : 6,
            "type" : "VEC3"
        },
        {
            "bufferView" : 24,
            "componentType" : 5126,
            "count" : 6,
            "type" : "VEC4"
        },
        {
            "bufferView" : 25,
            "componentType" : 5126,
            "count" : 3,
            "max" : [
                2.5
            ],
            "min" : [
                0
            ],
            "type" : "SCALAR"
        },
        {
            "bufferView" : 26,
            "componentType" : 5126,
            "count" : 9,
            "type" : "VEC4"
        },
        {
            "bufferView" : 27,
            "componentType" : 5126,
            "count" : 9,
            "type" : "VEC4"
        },
        {
            "bufferView" : 28,
            "componentType" : 5126,
            "count" : 6,
            "type" : "VEC4"
        },
        {
            "bufferView" : 29,
            "componentType" : 5126,
            "count" : 6,
            "type" : "VEC3"
        },
        {
            "bufferView" : 30,
            "componentType" : 5126,
            "count" : 6,
            "type" : "VEC3"
        },
        {
            "bufferView" : 31,
            "componentType" : 5126,
            "count" : 6,
            "type" : "VEC4"
        },
        {
            "bufferView" : 32,
            "componentType" : 5126,
            "count" : 9,
            "type" : "VEC4"
        },
        {
            "bufferView" : 33,
            "componentType" : 5126,
            "count" : 9,
            "type" : "VEC4"
        }
    ],
    "bufferViews" : [
        {
            "buffer" : 0,
            "byteLength" : 11904,
            "byteOffset" : 0
        },
        {
            "buffer" : 0,
            "byteLength" : 11904,
            "byteOffset" : 11904
        },
        {
            "buffer" : 0,
            "byteLength" : 7936,
            "byteOffset" : 23808
        },
        {
            "buffer" : 0,
            "byteLength" : 15872,
            "byteOffset" : 31744
        },
        {
            "buffer" : 0,
            "byteLength" : 2880,
            "byteOffset" : 47616
        },
        {
            "buffer" : 0,
            "byteLength" : 23040,
            "byteOffset" : 50496
        },
        {
            "buffer" : 0,
            "byteLength" : 23040,
            "byteOffset" : 73536
        },
        {
            "buffer" : 0,
            "byteLength" : 15360,
            "byteOffset" : 96576
        },
        {
            "buffer" : 0,
            "byteLength" : 30720,
            "byteOffset" : 111936
        },
        {
            "buffer" : 0,
            "byteLength" : 5760,
            "byteOffset" : 142656
        },
        {
            "buffer" : 0,
            "byteLength" : 768,
            "byteOffset" : 148416
        },
        {
            "buffer" : 0,
            "byteLength" : 12,
            "byteOffset" : 149184
        },
        {
            "buffer" : 0,
            "byteLength" : 108,
            "byteOffset" : 149196
        },
        {
            "buffer" : 0,
            "byteLength" : 144,
            "byteOffset" : 149304
        },
        {
            "buffer" : 0,
            "byteLength" : 4,
            "byteOffset" : 149448
        },
        {
            "buffer" : 0,
            "byteLength" : 12,
            "byteOffset" : 149452
        },
        {
            "buffer" : 0,
            "byteLength" : 8,
            "byteOffset" : 149464
        },
        {
            "buffer" : 0,
            "byteLength" : 72,
            "byteOffset" : 149472
        },
        {
            "buffer" : 0,
            "byteLength" : 96,
            "byteOffset" : 149544
        },
        {
            "buffer" : 0,
            "byteLength" : 72,
            "byteOffset" : 149640
        },
        {
            "buffer" : 0,
            "byteLength" : 96,
            "byteOffset" : 149712
        },
        {
            "buffer" : 0,
            "byteLength" : 72,
            "byteOffset" : 149808
        },
        {
            "buffer" : 0,
            "byteLength" : 96,
            "byteOffset" : 149880
        },
        {
            "buffer" : 0,
            "byteLength" : 72,
            "byteOffset" : 149976
        },
        {
            "buffer" : 0,
            "byteLength" : 96,
            "byteOffset" : 150048
        },
        {
            "buffer" : 0,
            "byteLength" : 12,
            "byteOffset" : 150144
        },
        {
            "buffer" : 0,
            "byteLength" : 144,
            "byteOffset" : 150156
        },
        {
            "buffer" : 0,
            "byteLength" : 144,
            "byteOffset" : 150300
        },
        {
            "buffer" : 0,
            "byteLength" : 96,
            "byteOffset" : 150444
        },
        {
            "buffer" : 0,
            "byteLength" : 72,
            "byteOffset" : 150540
        },
        {
            "buffer" : 0,
            "byteLength" : 72,
            "byteOffset" : 150612
        },
        {
            "buffer" : 0,
            "byteLength" : 96,
            "byteOffset" : 150684
        },
        {
            "buffer" : 0,
            "byteLength" : 144,
            "byteOffset" : 150780
        },
        {
            "buffer" : 0,
            "byteLength" : 144,
            "byteOffset" : 150924
        }
    ],
    "buffers" : [
        {
            "byteLength" : 151068,
            "uri" : "data:application/octet-stream;base64,"
        }
    ]
}
